HIERARCHY
ROOT Hips
{
	OFFSET 0.00000 0.00000 0.00000
	CHANNELS 6 Xposition Yposition Zposition Zrotation Yrotation Xrotation 
	JOINT LHipJoint
	{
		OFFSET 0 0 0
		CHANNELS 3 Zrotation Yrotation Xrotation
		JOINT LeftUpLeg
		{
			OFFSET 1.75344 -1.53157 0.77399
			CHANNELS 3 Zrotation Yrotation Xrotation
			JOINT LeftLeg
			{
				OFFSET 2.25415 -6.19323 0.00000
				CHANNELS 3 Zrotation Yrotation Xrotation
				JOINT LeftFoot
				{
					OFFSET 2.30342 -6.32861 0.00000
					CHANNELS 3 Zrotation Yrotation Xrotation
					JOINT LeftToeBase
					{
						OFFSET 0.10958 -0.30108 1.49206
						CHANNELS 3 Zrotation Yrotation Xrotation
						End Site
						{
							OFFSET 0.00000 -0.00000 0.77783
						}
					}
				}
			}
		}
	}
	JOINT RHipJoint
	{
		OFFSET 0 0 0
		CHANNELS 3 Zrotation Yrotation Xrotation
		JOINT RightUpLeg
		{
			OFFSET -1.81912 -1.53156 0.77399
			CHANNELS 3 Zrotation Yrotation Xrotation
			JOINT RightLeg
			{
				OFFSET -2.22882 -6.12365 0.00000
				CHANNELS 3 Zrotation Yrotation Xrotation
				JOINT RightFoot
				{
					OFFSET -2.21943 -6.09785 0.00000
					CHANNELS 3 Zrotation Yrotation Xrotation
					JOINT RightToeBase
					{
						OFFSET -0.18931 -0.52012 1.59379
						CHANNELS 3 Zrotation Yrotation Xrotation
						End Site
						{
							OFFSET -0.00000 -0.00000 0.84686
						}
					}
				}
			}
		}
	}
	JOINT LowerBack
	{
		OFFSET 0 0 0
		CHANNELS 3 Zrotation Yrotation Xrotation
		JOINT Spine
		{
			OFFSET -0.00200 1.66634 -0.14248
			CHANNELS 3 Zrotation Yrotation Xrotation
			JOINT Spine1
			{
				OFFSET -0.00875 1.64542 0.09514
				CHANNELS 3 Zrotation Yrotation Xrotation
				JOINT Neck
				{
					OFFSET 0 0 0
					CHANNELS 3 Zrotation Yrotation Xrotation
					JOINT Neck1
					{
						OFFSET 0.02257 1.59605 0.00839
						CHANNELS 3 Zrotation Yrotation Xrotation
						JOINT Head
						{
							OFFSET -0.10214 1.57530 -0.23335
							CHANNELS 3 Zrotation Yrotation Xrotation
							End Site
							{
								OFFSET -0.03588 1.60717 -0.08062
							}
						}
					}
				}
				JOINT LeftShoulder
				{
					OFFSET 0 0 0
					CHANNELS 3 Zrotation Yrotation Xrotation
					JOINT LeftArm
					{
						OFFSET 2.54983 1.10186 0.40078
						CHANNELS 3 Zrotation Yrotation Xrotation
						JOINT LeftForeArm
						{
							OFFSET 4.28840 -0.00000 0.00000
							CHANNELS 3 Zrotation Yrotation Xrotation
							JOINT LeftHand
							{
								OFFSET 3.06552 -0.00000 -0.00000
								CHANNELS 3 Zrotation Yrotation Xrotation
								JOINT LeftFingerBase
								{
									OFFSET 0 0 0
									CHANNELS 3 Zrotation Yrotation Xrotation
									JOINT LeftHandIndex1
									{
										OFFSET 0.75304 -0.00000 0.00000
										CHANNELS 3 Zrotation Yrotation Xrotation
										End Site
										{
											OFFSET 0.60712 -0.00000 0.00000
										}
									}
								}
								JOINT LThumb
								{
									OFFSET 0 0 0
									CHANNELS 3 Zrotation Yrotation Xrotation
									End Site
									{
										OFFSET 0.61639 -0.00000 0.61639
									}
								}
							}
						}
					}
				}
				JOINT RightShoulder
				{
					OFFSET 0 0 0
					CHANNELS 3 Zrotation Yrotation Xrotation
					JOINT RightArm
					{
						OFFSET -2.60909 1.35448 0.21802
						CHANNELS 3 Zrotation Yrotation Xrotation
						JOINT RightForeArm
						{
							OFFSET -4.52172 -0.00000 -0.00000
							CHANNELS 3 Zrotation Yrotation Xrotation
							JOINT RightHand
							{
								OFFSET -2.89140 -0.00000 0.00000
								CHANNELS 3 Zrotation Yrotation Xrotation
								JOINT RightFingerBase
								{
									OFFSET 0 0 0
									CHANNELS 3 Zrotation Yrotation Xrotation
									JOINT RightHandIndex1
									{
										OFFSET -0.68054 -0.00000 0.00000
										CHANNELS 3 Zrotation Yrotation Xrotation
										End Site
										{
											OFFSET -0.54867 -0.00000 0.00000
										}
									}
								}
								JOINT RThumb
								{
									OFFSET 0 0 0
									CHANNELS 3 Zrotation Yrotation Xrotation
									End Site
									{
										OFFSET -0.55705 -0.00000 0.55705
									}
								}
							}
						}
					}
				}
			}
		}
	}
}
MOTION
Frames: 10
Frame Time: 0.2
0.00 0.00 0.00 0 0 0 0 0 0 -21 0 0 0 0 0 0 0 0 0 0 0 0 0 0 21 0 0 0 0 0 0 0 0 0 0 0 0 0 0 0 0 0 0 0 0 0 0 -16 0 0 21 0 0 11 0 0 0 -8 0 0 0 0 0 0 0 0 0 0 0 0 0 0 0 0 0 0 0 0 8 0 0 0 0 0 0 0 0 0 0 0 0 0 0 0 0 0
0.00 0.00 0.00 -177.9810 -1.3318 -171.0620 0.0000 0.0000 0.0000 -18.4769 -13.5755 -20.0592 4.8219 13.1804 40.0476 3.0547 -0.5131 -33.0102 2.5112 -9.8583 -28.5190 0.0000 0.0000 0.0000 26.9883 11.5598 -15.3200 -3.2264 -11.0528 32.4583 -1.3299 -15.3918 -32.0630 -0.2066 2.9269 -8.0752 2.2314 0.9629 11.3792 0.4725 1.6591 -3.6302 -1.0799 0.6595 -10.2691 -7.5492 -3.2390 -7.4729 7.9344 -4.1595 -7.4719 3.8612 -2.2062 -0.7485 0.0000 0.0000 0.0000 -82.0835 19.5163 18.3027 21.4150 -32.3096 -6.2703 -0.0000 -0.0000 8.1719 13.4947 -31.4619 -7.1393 -7.1250 0.0000 -0.0000 -10.2420 -1.7484 10.7204 0.0000 0.0000 0.0000 81.8674 -12.6395 35.6826 -23.9258 35.0857 -7.6638 0.0000 0.0000 10.1152 -23.7711 -53.2118 19.4296 7.1250 -0.0000 -0.0000 64.5602 -80.5067 -55.5895
0.00 0.00 0.00 -178.3200 -2.0791 -167.1810 0.0000 0.0000 0.0000 -16.8663 -14.7937 -31.8989 8.5281 16.4943 54.4434 3.5515 -5.3572 -34.5875 1.9640 -8.7906 -25.1426 0.0000 0.0000 0.0000 25.1272 12.5994 -28.8121 -7.2396 -15.5303 49.7746 -2.3112 -13.6338 -36.1794 -0.3188 3.6294 -10.0364 1.5556 0.9335 14.1857 0.0959 1.5488 -3.3507 -1.1459 0.6251 -11.6296 -6.6642 -3.0102 -9.0478 7.9351 -4.3967 -12.9049 3.7956 -2.6606 -2.2980 -0.0000 0.0000 0.0000 -86.4885 19.7308 17.6013 19.8115 -30.4146 -5.4356 -0.0000 -0.0000 9.8489 6.6005 -32.4150 -3.5494 -7.1250 0.0000 -0.0000 -14.1713 -1.7423 15.0583 -0.0000 0.0000 0.0000 85.2856 -11.5998 36.0377 -23.6358 34.7768 -7.4978 0.0000 0.0000 10.6804 -27.5229 -53.5516 22.7409 7.1250 -0.0000 -0.0000 67.3864 -82.1557 -59.8982
0.00 0.00 0.00 -178.5990 -1.4587 -162.6300 0.0000 0.0000 0.0000 -14.6897 -14.4346 -44.6339 12.8735 18.7360 68.7321 3.8326 -9.8480 -35.5494 2.3832 -9.6225 -27.7626 0.0000 0.0000 0.0000 22.0050 16.3773 -42.7922 -12.7287 -18.6820 68.2809 -2.5346 -12.0576 -36.2421 -0.4538 4.3215 -11.9830 0.6109 1.4960 15.5279 -0.3002 2.0941 -3.3357 -1.2200 0.9217 -12.4133 -6.4625 -2.8953 -8.5988 7.9947 -5.0083 -19.2581 3.6743 -3.4173 -4.0148 -0.0000 0.0000 0.0000 -89.0512 13.0890 16.3913 15.3443 -24.6236 -3.3681 -0.0000 -0.0000 20.7686 0.3401 -35.5013 -0.1975 -7.1250 0.0000 -0.0000 -17.6520 -4.0729 19.7965 -0.0000 0.0000 0.0000 88.0565 -4.4720 31.2630 -18.4870 28.7763 -4.7814 0.0000 0.0000 16.1407 -31.5973 -53.9349 26.4387 7.1250 -0.0000 -0.0000 73.9418 -83.9001 -67.9632
0.00 0.00 0.00 -177.6490 -0.7710 -165.5610 0.0000 0.0000 0.0000 -17.8010 -6.9492 -26.7977 6.9655 15.3027 48.7436 1.1954 -7.9881 -19.5540 1.6557 -8.1087 -23.0448 0.0000 0.0000 0.0000 26.8491 7.5548 -21.8078 -5.0669 -13.4587 41.1109 -0.2789 -14.0780 -22.8651 -0.1837 2.7607 -7.6131 0.4969 0.6321 11.2311 -0.1169 0.8660 -4.6492 -0.5832 0.3487 -11.3581 -5.0075 -2.4456 -7.8178 5.9114 -3.6109 -10.6058 2.7578 -2.1452 -1.8453 -0.0000 -0.0000 0.0000 -69.0332 1.3715 32.7692 22.1320 -33.1259 -6.6578 -0.0000 -0.0000 28.4713 -4.2244 -40.3173 2.7362 -7.1250 0.0000 -0.0000 -20.0506 -8.3099 24.1588 -0.0000 -0.0000 0.0000 65.3935 18.1589 40.6077 -65.7520 57.6574 -39.1657 0.0000 -0.0000 -2.1538 -21.7313 -58.6155 18.7916 7.1250 -0.0000 -0.0000 94.7727 -79.4822 -84.1930
0.00 0.00 0.00 -178.3360 -1.0661 -168.8550 0.0000 0.0000 0.0000 -19.3881 -4.2195 -15.0275 3.5711 11.5667 34.2158 0.0105 -1.1411 -1.8703 1.3555 -7.3700 -20.8163 0.0000 0.0000 0.0000 25.7845 3.0093 -8.9018 -1.8675 -8.5844 24.5036 0.7663 -15.3589 -4.0767 -0.4086 4.1035 -11.3681 0.4301 0.4647 7.5955 -0.0663 0.5642 -4.8971 -0.3931 0.1982 -9.4667 -5.1156 -2.4987 -7.2324 4.6153 -3.2679 -5.0030 2.2628 -1.7070 -0.1739 -0.0000 -0.0000 0.0000 -68.8451 4.2135 38.0835 20.1847 -30.8642 -5.6258 -0.0000 -0.0000 27.5553 -14.3319 -37.4619 8.8329 -7.1250 0.0000 -0.0000 -24.9208 -5.4034 30.0291 -0.0000 -0.0000 0.0000 63.4568 14.0984 47.2372 -63.6202 57.1999 -37.3692 0.0000 -0.0000 -0.1237 -16.2716 -59.5011 14.1170 7.1250 -0.0000 -0.0000 95.0678 -77.5081 -82.4436
0.00 0.00 0.00 -178.6990 -1.2384 -171.7210 0.0000 0.0000 0.0000 -20.5042 -12.2043 -1.5591 1.4421 7.5918 21.4811 -1.3615 21.8610 0.9945 3.3273 11.2069 32.9808 0.0000 0.0000 0.0000 25.9670 14.1660 7.1785 -0.3366 -3.7285 10.3140 5.8671 -39.0850 -8.4380 -3.7742 -11.8537 35.2163 0.3757 0.3657 4.9085 0.0208 0.3366 -5.4562 -0.2176 0.0613 -8.4913 -5.4084 -2.6375 -6.3883 4.0741 -3.2583 0.5846 2.1277 -1.5926 1.4588 0.0000 0.0000 0.0000 -70.2496 8.6581 38.9307 20.0335 -30.6826 -5.5484 -0.0000 -0.0000 30.9051 -25.7531 -31.5903 14.1821 -7.1250 0.0000 -0.0000 -30.6554 -0.8664 36.8560 0.0000 0.0000 0.0000 63.2924 8.1623 52.8629 -63.5058 57.1740 -37.2730 0.0000 0.0000 2.8405 -8.9803 -58.6448 7.6858 7.1250 -0.0000 -0.0000 89.3080 -75.2372 -74.0067
0.00 0.00 0.00 -178.3790 -1.3857 -171.0940 0.0000 0.0000 0.0000 -21.2468 -19.9706 0.9568 1.2487 7.0849 19.9672 -1.3277 25.2268 -26.2609 9.8845 17.3444 59.1015 0.0000 0.0000 0.0000 25.2911 10.7534 5.9731 -0.2175 -3.0023 8.2850 6.6257 -40.3295 -20.8168 -7.8834 -16.0328 52.1415 1.3563 0.3471 1.0993 0.1793 0.1824 -6.3153 -0.5656 -0.1375 -7.1867 -5.9165 -2.6446 -5.6185 4.7153 -3.2969 2.5993 2.4436 -1.6010 2.0120 -0.0000 -0.0000 0.0000 -74.2635 11.4966 36.5781 19.9161 -30.5411 -5.4886 -0.0000 -0.0000 31.3148 -35.4396 -23.0842 15.5916 -7.1250 0.0000 -0.0000 -35.8752 4.5437 42.7561 -0.0000 -0.0000 0.0000 66.7955 0.8931 54.2178 -65.3639 57.5776 -38.8380 0.0000 0.0000 2.2827 -4.4076 -55.9637 3.6547 7.1250 -0.0000 -0.0000 80.0518 -73.5534 -62.7554
0.00 0.00 0.00 -178.5180 -0.8093 -173.2260 0.0000 0.0000 0.0000 -14.4348 -30.9528 -12.7223 0.8800 5.9802 16.7271 -3.5188 31.1042 -9.9426 2.0829 9.0367 25.9101 0.0000 0.0000 0.0000 19.9004 29.5395 -8.2014 -0.3133 -3.5983 9.9492 5.8647 -39.6595 -5.6073 -0.7541 -5.5464 15.4737 0.5932 0.5866 13.0184 0.4081 0.9250 -3.1130 -0.0969 0.4167 -10.7084 -7.2443 -3.2235 -8.9541 6.6538 -3.8955 -1.2314 3.2969 -1.8924 1.4878 -0.0000 -0.0000 0.0000 -79.3139 14.9221 38.8914 25.1810 -36.3884 -8.3970 -0.0000 -0.0000 16.9148 -1.5685 -33.8940 0.8748 -7.1250 0.0000 -0.0000 -18.6328 -2.3983 20.4932 -0.0000 -0.0000 0.0000 73.2384 -18.2054 57.9236 -54.5996 54.6901 -29.8890 0.0000 0.0000 6.0523 -18.8999 -54.2861 15.5353 7.1250 -0.0000 -0.0000 70.6114 -78.7260 -59.4445
0.00 0.00 0.00 -178.1260 0.3037 -174.3190 0.0000 0.0000 0.0000 -16.1995 -15.0207 -26.7798 4.5364 12.8419 38.7795 0.3888 2.4394 -12.9270 2.4451 -9.7374 -28.1304 0.0000 0.0000 0.0000 24.5048 12.9347 -24.7339 -3.9900 -12.1471 36.2545 0.1696 -8.9764 -8.8797 -0.2232 3.0409 -8.3925 0.9278 0.7247 15.6580 0.3898 1.2064 -2.5784 -0.4061 0.5256 -11.6562 -6.4635 -2.5927 -8.2870 6.2657 -3.2153 -3.7755 3.0515 -1.6274 0.4597 0.0000 -0.0000 0.0000 -80.1438 13.1569 33.6912 19.6656 -30.2373 -5.3619 -0.0000 -0.0000 23.7916 -8.0309 -33.2435 4.4228 -7.1250 0.0000 -0.0000 -22.0138 -1.4802 24.4363 0.0000 -0.0000 0.0000 75.9981 -15.7013 53.7140 -39.2195 47.6006 -17.8607 0.0000 0.0000 10.0596 -20.4384 -55.1010 16.9954 7.1250 -0.0000 -0.0000 74.9783 -79.4265 -64.3567
